<svg id="Capa_1" enable-background="new 0 0 512 512" height="512" viewBox="0 0 512 512" width="512" xmlns="http://www.w3.org/2000/svg"><g><g><path d="m491.355 33.95h-470.71c-11.402 0-20.645 9.243-20.645 20.645v37.964l28.613 9h452.65l30.737-9v-37.964c0-11.402-9.243-20.645-20.645-20.645z" fill="#596e7b"/><path d="m0 111.139 28.055 9h452.092l31.853-9v-18.58h-512z" fill="#50626c"/><path d="m20.645 468.47h470.71c11.402 0 20.645-5.675 20.645-29.645v-327.686h-512v327.685c0 18.581 9.243 29.646 20.645 29.646z" fill="#eef2f4"/><path d="m357.365 429.08h99.039c2.761 0 5-2.239 5-5v-13.58h-109.039v13.581c0 2.761 2.239 4.999 5 4.999z" fill="#8ad2f7"/><path d="m461.404 410.5v-53.268c0-2.761-2.239-5-5-5h-99.039c-2.761 0-5 2.239-5 5v53.268l54.815 9z" fill="#a8daf9"/><path d="m310.519 295.226v-53.268c0-2.762-2.239-5-5-5h-249.923c-2.761 0-5 2.238-5 5v53.268l129.962 9z" fill="#ffd45d"/><path d="m461.404 165.109c0-2.762-2.239-5-5-5h-400.808c-2.761 0-5 2.238-5 5v14.844l205.404 9 205.404-9z" fill="#fd667e"/><path d="m491.355 459.47h-470.71c-11.402 0-20.645-9.243-20.645-20.645v18.581c0 11.402 9.243 20.645 20.645 20.645h470.71c11.402 0 20.645-9.243 20.645-20.645v-18.581c0 11.402-9.243 20.645-20.645 20.645z" fill="#dce9ef"/><path d="m357.365 429.08h99.039c2.761 0 5-2.239 5-5v-13.58h-109.039v13.581c0 2.761 2.239 4.999 5 4.999z" fill="#8ad2f7"/><path d="m55.596 313.807h249.924c2.761 0 5-2.239 5-5v-13.581h-259.924v13.581c0 2.762 2.238 5 5 5z" fill="#ffc41a"/><path d="m55.596 198.534h400.808c2.761 0 5-2.239 5-5v-13.581h-410.808v13.581c0 2.761 2.238 5 5 5z" fill="#fd4658"/></g><g><path d="m33.509 71.434c0 7.163 5.827 12.99 12.99 12.99s12.99-5.827 12.99-12.99-5.827-12.99-12.99-12.99-12.99 5.827-12.99 12.99z" fill="#fd667e"/><path d="m72.317 71.434c0 7.163 5.827 12.99 12.99 12.99s12.99-5.827 12.99-12.99-5.827-12.99-12.99-12.99-12.99 5.827-12.99 12.99z" fill="#ffd45d"/><path d="m111.125 71.434c0 7.163 5.827 12.99 12.99 12.99s12.99-5.827 12.99-12.99-5.827-12.99-12.99-12.99-12.99 5.827-12.99 12.99z" fill="#14d190"/><g fill="#a3afc5"><path d="m310.626 344.663h-109.252c-4.284 0-7.757 3.473-7.757 7.757 0 4.285 3.473 7.757 7.757 7.757h109.253c4.284 0 7.757-3.472 7.757-7.757-.001-4.284-3.474-7.757-7.758-7.757z"/><path d="m461.806 229.164h-109.252c-4.284 0-7.757 3.472-7.757 7.757s3.473 7.757 7.757 7.757h109.252c4.284 0 7.757-3.473 7.757-7.757s-3.473-7.757-7.757-7.757z"/><path d="m461.806 306.164h-109.252c-4.284 0-7.757 3.472-7.757 7.757s3.473 7.757 7.757 7.757h109.252c4.284 0 7.757-3.472 7.757-7.757s-3.473-7.757-7.757-7.757z"/><path d="m461.806 267.664h-109.252c-4.284 0-7.757 3.473-7.757 7.757 0 4.285 3.473 7.757 7.757 7.757h109.252c4.284 0 7.757-3.473 7.757-7.757 0-4.285-3.473-7.757-7.757-7.757z"/><path d="m310.626 383.163h-109.252c-4.284 0-7.757 3.473-7.757 7.757s3.473 7.757 7.757 7.757h109.253c4.284 0 7.757-3.473 7.757-7.757s-3.474-7.757-7.758-7.757z"/><path d="m310.626 421.662h-109.252c-4.284 0-7.757 3.473-7.757 7.757s3.473 7.757 7.757 7.757h109.253c4.284 0 7.757-3.473 7.757-7.757-.001-4.284-3.474-7.757-7.758-7.757z"/><path d="m159.446 344.663h-109.252c-4.284 0-7.757 3.473-7.757 7.757 0 4.285 3.473 7.757 7.757 7.757h109.252c4.284 0 7.757-3.472 7.757-7.757 0-4.284-3.473-7.757-7.757-7.757z"/><path d="m159.446 383.163h-109.252c-4.284 0-7.757 3.473-7.757 7.757s3.473 7.757 7.757 7.757h109.252c4.284 0 7.757-3.473 7.757-7.757s-3.473-7.757-7.757-7.757z"/><path d="m159.446 421.662h-109.252c-4.284 0-7.757 3.473-7.757 7.757s3.473 7.757 7.757 7.757h109.252c4.284 0 7.757-3.473 7.757-7.757s-3.473-7.757-7.757-7.757z"/></g></g></g></svg>