<svg id="Capa_1" enable-background="new 0 0 512 512" height="512" viewBox="0 0 512 512" width="512" xmlns="http://www.w3.org/2000/svg"><g><path d="m79.089 339.252v99.902c0 40.232 79.206 72.846 176.911 72.846s176.911-32.614 176.911-72.846v-99.902z" fill="#b6c4cf"/><path d="m432.911 439.154v-99.902h-24.976v137.232c15.855-10.917 24.976-23.684 24.976-37.33z" fill="#9facba"/><path d="m79.089 239.35v99.902c0 40.231 79.206 72.846 176.911 72.846s176.911-32.614 176.911-72.846v-99.902z" fill="#7a8c98"/><path d="m79.089 206.049v99.902c0 40.231 79.206 72.846 176.911 72.846s176.911-32.614 176.911-72.846v-99.902z" fill="#b6c4cf"/><path d="m407.935 206.049v138.273c15.855-10.917 24.976-23.684 24.976-37.33v-100.943z" fill="#9facba"/><path d="m79.089 106.146v99.902c0 40.231 79.206 72.846 176.911 72.846s176.911-32.614 176.911-72.846v-99.902z" fill="#7a8c98"/><path d="m79.089 72.846v99.902c0 40.231 79.206 72.846 176.911 72.846s176.911-32.614 176.911-72.846v-99.902z" fill="#b6c4cf"/><path d="m407.935 72.846v137.232c15.855-10.917 24.976-23.684 24.976-37.33v-99.902z" fill="#9facba"/><ellipse cx="256" cy="72.846" fill="#d9e7ec" rx="176.911" ry="72.846"/><path d="m399.948 30.493c1.482 3.795 2.263 7.686 2.263 11.653 0 40.231-79.206 72.846-176.911 72.846-59.342 0-111.855-12.032-143.948-30.494 13.548 34.692 86.577 61.193 174.648 61.193 97.705 0 176.911-32.614 176.911-72.846 0-15.796-12.216-30.417-32.963-42.352z" fill="#c5d3dd"/><g fill="#e279b3"><circle cx="377.756" cy="175.87" r="10.407"/><circle cx="377.756" cy="309.073" r="10.407"/><circle cx="377.756" cy="442.276" r="10.407"/><circle cx="336.13" cy="186.276" r="10.407"/><circle cx="336.13" cy="319.48" r="10.407"/><circle cx="336.13" cy="452.683" r="10.407"/></g></g></svg>